<svg width="106" height="174" viewBox="0 0 106 174" fill="none" xmlns="http://www.w3.org/2000/svg">
<g clip-path="url(#clip0_260_104)">
<path d="M26.5054 174C41.1305 174 53.0001 161.008 53.0001 145V116H26.5054C11.8804 116 0.0107422 128.992 0.0107422 145C0.0107422 161.008 11.8804 174 26.5054 174Z" fill="#0ACF83"/>
<path d="M0.0107422 87C0.0107422 70.992 11.8804 58 26.5054 58H53.0001V116H26.5054C11.8804 116 0.0107422 103.008 0.0107422 87Z" fill="#A259FF"/>
<path d="M0.0107422 29C0.0107422 12.992 11.8804 0 26.5054 0H53.0001V58H26.5054C11.8804 58 0.0107422 45.008 0.0107422 29Z" fill="#F24E1E"/>
<path d="M53 0H79.4947C94.1198 0 105.989 12.992 105.989 29C105.989 45.008 94.1198 58 79.4947 58H53V0Z" fill="#FF7262"/>
<path d="M105.989 87C105.989 103.008 94.1198 116 79.4947 116C64.8696 116 53 103.008 53 87C53 70.992 64.8696 58 79.4947 58C94.1198 58 105.989 70.992 105.989 87Z" fill="#1ABCFE"/>
</g>
<defs>
<clipPath id="clip0_260_104">
<rect width="106" height="174" fill="white"/>
</clipPath>
</defs>
</svg>
