<svg width="2184" height="2501" viewBox="0 0 2184 2501" fill="none" xmlns="http://www.w3.org/2000/svg">
<g clip-path="url(#clip0_401_80)">
<path d="M183.343 2238.46L0.552246 4.51221L2183.55 9.00144L1990.27 2238.46L1100.29 2496.16L183.343 2238.46Z" fill="#E9CA32"/>
<path d="M1100.29 2280.41V217.267L1999.26 220.259L1838.95 2066.14L1100.29 2280.41Z" fill="#FFDE25"/>
<path d="M1004.03 462.238H766.362V1835.42L581.512 1800.21V1615.36L361.451 1580.15V1993.86L1004.03 2161.11V462.238ZM1182.31 462.238H1840.26L1796.25 725.431H1433.48V1157.33H1796.25L1752.23 2029.07L1182.31 2161.11V1888.23L1567.38 1756.19L1589.62 1395.29L1182.31 1454.27V462.238Z" fill="white"/>
</g>
<defs>
<clipPath id="clip0_401_80">
<rect width="2183" height="2500" fill="white" transform="translate(0.552246 0.336426)"/>
</clipPath>
</defs>
</svg>
