<svg width="65" height="65" viewBox="0 0 65 65" fill="none" xmlns="http://www.w3.org/2000/svg">
<g clip-path="url(#clip0_393_68)">
<path d="M29.4148 1.49497C31.0148 0.588966 33.0548 0.584966 34.6148 1.49497L58.5028 14.961C59.9968 15.801 60.9968 17.467 60.9828 19.189V46.189C60.9928 47.983 59.8948 49.685 58.3188 50.509L34.5588 63.913C33.7461 64.3621 32.828 64.5854 31.8999 64.5597C30.9717 64.534 30.0674 64.2603 29.2808 63.767L22.1508 59.647C21.6648 59.357 21.1188 59.127 20.7748 58.657C21.0788 58.249 21.6188 58.197 22.0588 58.017C23.0508 57.701 23.9588 57.217 24.8708 56.705C25.1008 56.545 25.3828 56.605 25.6028 56.749L31.6828 60.265C32.1168 60.515 32.5568 60.185 32.9288 59.975L56.2588 46.809C56.5468 46.669 56.7068 46.365 56.6828 46.049V19.309C56.7148 18.949 56.5088 18.621 56.1828 18.475L32.4828 5.12897C32.3462 5.0345 32.1842 4.98373 32.0181 4.98337C31.852 4.98302 31.6898 5.03309 31.5528 5.12697L7.8868 18.501C7.5668 18.647 7.3468 18.971 7.3868 19.331V46.071C7.3588 46.387 7.5268 46.685 7.8168 46.821L14.1408 50.391C15.3288 51.031 16.7868 51.391 18.0948 50.921C18.6672 50.7052 19.1599 50.3197 19.507 49.816C19.8541 49.3124 20.039 48.7146 20.0368 48.103L20.0428 21.523C20.0148 21.129 20.3868 20.803 20.7688 20.843H23.8088C24.2088 20.833 24.5228 21.257 24.4688 21.653L24.4628 48.401C24.4648 50.777 23.4888 53.361 21.2908 54.527C18.5828 55.927 15.2348 55.633 12.5588 54.287L5.7588 50.527C4.1588 49.727 3.0848 47.999 3.0948 46.207V19.207C3.10145 18.3294 3.3427 17.4696 3.79353 16.7167C4.24436 15.9638 4.88837 15.3452 5.6588 14.925L29.4148 1.49497ZM36.3028 20.211C39.7568 20.011 43.4548 20.079 46.5628 21.781C48.9688 23.085 50.3028 25.821 50.3468 28.497C50.2788 28.857 49.9028 29.057 49.5588 29.031C48.5588 29.029 47.5548 29.045 46.5508 29.025C46.1248 29.041 45.8788 28.649 45.8248 28.273C45.5368 26.993 44.8388 25.727 43.6348 25.109C41.7868 24.183 39.6428 24.229 37.6268 24.249C36.1548 24.329 34.5728 24.455 33.3268 25.319C32.3668 25.975 32.0788 27.319 32.4208 28.363C32.7408 29.129 33.6268 29.375 34.3488 29.603C38.5128 30.691 42.9228 30.603 47.0088 32.017C48.6988 32.601 50.3528 33.737 50.9328 35.507C51.6888 37.879 51.3588 40.715 49.6728 42.619C48.3048 44.187 46.3128 45.019 44.3228 45.503C41.6768 46.093 38.9328 46.107 36.2468 45.843C33.7208 45.555 31.0928 44.891 29.1428 43.171C27.4748 41.723 26.6628 39.467 26.7428 37.291C26.7628 36.923 27.1288 36.667 27.4828 36.697H30.4828C30.8868 36.669 31.1828 37.017 31.2028 37.397C31.3888 38.597 31.8468 39.897 32.9108 40.597C34.9628 41.921 37.5368 41.829 39.8848 41.867C41.8308 41.781 44.0148 41.755 45.6048 40.467C46.4448 39.733 46.6908 38.507 46.4648 37.451C46.2188 36.559 45.2648 36.145 44.4648 35.851C40.3548 34.551 35.8948 35.023 31.8248 33.551C30.1728 32.967 28.5748 31.863 27.9408 30.165C27.0548 27.765 27.4608 24.791 29.3268 22.951C31.1268 21.121 33.7668 20.415 36.2668 20.163L36.3028 20.211Z" fill="#8CC84B"/>
</g>
<defs>
<clipPath id="clip0_393_68">
<rect width="64" height="64" fill="white" transform="translate(0.102783 0.641113)"/>
</clipPath>
</defs>
</svg>
