<svg width="65" height="65" viewBox="0 0 65 65" fill="none" xmlns="http://www.w3.org/2000/svg">
<g clip-path="url(#clip0_425_68)">
<mask id="mask0_425_68" style="mask-type:luminance" maskUnits="userSpaceOnUse" x="0" y="14" width="65" height="35">
<path d="M0.609131 31.5726C0.609131 40.7422 14.9362 48.1758 32.6089 48.1758C50.2816 48.1758 64.6087 40.7422 64.6087 31.5726C64.6087 22.4031 50.2816 14.9695 32.6089 14.9695C14.9362 14.9695 0.609131 22.4032 0.609131 31.5726Z" fill="white"/>
</mask>
<g mask="url(#mask0_425_68)">
<path d="M0.609131 31.5726C0.609131 40.7422 14.9362 48.1758 32.6089 48.1758C50.2816 48.1758 64.6087 40.7422 64.6087 31.5726C64.6087 22.4031 50.2816 14.9695 32.6089 14.9695C14.9362 14.9695 0.609131 22.4032 0.609131 31.5726Z" fill="url(#paint0_radial_425_68)"/>
</g>
<mask id="mask1_425_68" style="mask-type:luminance" maskUnits="userSpaceOnUse" x="-1" y="13" width="67" height="38">
<path d="M-0.724121 13.0792H65.9421V50.0664H-0.724121V13.0792Z" fill="white"/>
</mask>
<g mask="url(#mask1_425_68)">
<path d="M32.6089 46.9429C49.5915 46.9429 63.3587 40.0614 63.3587 31.5726C63.3587 23.0838 49.5915 16.2024 32.6089 16.2024C15.6264 16.2024 1.85913 23.0838 1.85913 31.5726C1.85913 40.0614 15.6264 46.9429 32.6089 46.9429Z" fill="#777BB3"/>
</g>
<mask id="mask2_425_68" style="mask-type:luminance" maskUnits="userSpaceOnUse" x="-1" y="13" width="67" height="38">
<path d="M-0.724121 13.0792H65.9421V50.0664H-0.724121V13.0792Z" fill="white"/>
</mask>
<g mask="url(#mask2_425_68)">
<path d="M17.995 33.4785C19.3914 33.4785 20.4339 33.2245 21.0934 32.7239C21.7459 32.2284 22.1966 31.3697 22.4328 30.1721C22.6531 29.0527 22.5692 28.271 22.1835 27.8492C21.7892 27.4184 20.9367 27.1999 19.6496 27.1999H17.4182L16.1809 33.4786H17.9949L17.995 33.4785ZM10.696 41.2127C10.5924 41.2127 10.494 41.167 10.4282 41.088C10.3956 41.049 10.3722 41.0034 10.3596 40.9545C10.347 40.9056 10.3455 40.8545 10.3552 40.8049L13.6339 24.1664C13.6493 24.0883 13.6917 24.018 13.7539 23.9675C13.8161 23.9169 13.8942 23.8893 13.9748 23.8893H21.0412C23.262 23.8893 24.915 24.4829 25.954 25.6573C26.9985 26.8365 27.3211 28.4852 26.9127 30.5569C26.7465 31.401 26.4606 32.1848 26.0631 32.8869C25.665 33.5895 25.1391 34.2397 24.4995 34.8196C23.7337 35.5265 22.8671 36.039 21.9259 36.3406C20.9996 36.6382 19.8102 36.7893 18.3903 36.7893H15.5289L14.7118 40.9357C14.6965 41.0137 14.6541 41.0841 14.5919 41.1346C14.5297 41.1852 14.4517 41.2129 14.3711 41.2129H10.696V41.2127Z" fill="black"/>
<path d="M17.7046 27.5422H19.6499C21.2032 27.5422 21.7429 27.8784 21.9262 28.0787C22.2304 28.4114 22.2878 29.1128 22.0923 30.107C21.8726 31.22 21.4654 32.0092 20.8819 32.4523C20.2844 32.906 19.3131 33.1359 17.9953 33.1359H16.6023L17.7046 27.5422ZM21.0414 23.5466H13.975C13.8138 23.5467 13.6577 23.602 13.5333 23.7031C13.409 23.8042 13.3241 23.9448 13.2934 24.1009L10.0147 40.7396C9.99517 40.8388 9.99812 40.941 10.0233 41.0389C10.0485 41.1368 10.0954 41.228 10.1605 41.3059C10.2257 41.3838 10.3075 41.4466 10.4001 41.4897C10.4927 41.5328 10.5939 41.5552 10.6963 41.5552H14.371C14.5322 41.5552 14.6884 41.4999 14.8128 41.3988C14.9371 41.2976 15.022 41.157 15.0527 41.0009L15.8152 37.1316H18.3904C19.8467 37.1316 21.0726 36.9749 22.0339 36.6661C23.0224 36.3493 23.9321 35.8122 24.7369 35.0697C25.4027 34.4656 25.9522 33.7875 26.3666 33.0541C26.7809 32.3206 27.0807 31.5022 27.254 30.6223C27.684 28.4414 27.3347 26.695 26.2159 25.432C25.108 24.181 23.367 23.5468 21.0416 23.5468M15.76 33.821H17.9953C19.4768 33.821 20.5805 33.5459 21.3055 32.9952C22.0305 32.4445 22.5198 31.5254 22.774 30.2374C23.017 29.0009 22.9064 28.1283 22.4418 27.6198C21.9772 27.1113 21.046 26.8572 19.6502 26.8572H17.1324L15.7601 33.8209M21.0417 24.2316C23.1675 24.2316 24.7183 24.7818 25.6931 25.8823C26.6678 26.9828 26.9612 28.5191 26.5723 30.4914C26.4123 31.3039 26.1416 32.0467 25.7604 32.7198C25.3793 33.3929 24.8806 34.009 24.2648 34.5673C23.531 35.2446 22.7159 35.7272 21.8189 36.0149C20.9219 36.3031 19.7796 36.4466 18.3907 36.4466H15.243L14.3715 40.8702H10.6967L13.975 24.2316H21.0415" fill="white"/>
<path d="M35.3387 36.7889C35.235 36.7889 35.1367 36.7433 35.0709 36.6643C35.005 36.5853 34.978 36.4816 34.9979 36.3812L36.4482 29.0191C36.5861 28.319 36.5521 27.8165 36.3525 27.6041C36.2302 27.4743 35.8631 27.2566 34.7776 27.2566H32.15L30.3266 36.5117C30.3112 36.5897 30.2688 36.66 30.2066 36.7106C30.1444 36.7612 30.0663 36.7888 29.9857 36.7888H26.3399C26.2887 36.7888 26.2381 36.7777 26.1918 36.7561C26.1455 36.7346 26.1046 36.7032 26.072 36.6642C26.0394 36.6252 26.016 36.5797 26.0034 36.5307C25.9908 36.4817 25.9893 36.4306 25.999 36.3811L29.2777 19.7425C29.2931 19.6645 29.3355 19.5942 29.3977 19.5437C29.4599 19.4931 29.538 19.4655 29.6186 19.4655H33.2644C33.3156 19.4655 33.3662 19.4766 33.4125 19.4982C33.4588 19.5197 33.4997 19.5511 33.5323 19.5901C33.5649 19.6291 33.5883 19.6747 33.6009 19.7236C33.6135 19.7726 33.615 19.8237 33.6052 19.8732L32.814 23.8891H35.6406C37.794 23.8891 39.2541 24.2635 40.1047 25.0339C40.9728 25.8197 41.2421 27.0762 40.9088 28.7691L39.3833 36.5119C39.368 36.5899 39.3256 36.6603 39.2634 36.7108C39.2012 36.7614 39.1231 36.7891 39.0425 36.7891H35.3388L35.3387 36.7889Z" fill="black"/>
<path d="M33.2642 19.123H29.6184C29.4572 19.123 29.301 19.1783 29.1767 19.2794C29.0523 19.3806 28.9674 19.5212 28.9367 19.6773L25.658 36.3158C25.6385 36.415 25.6414 36.5172 25.6666 36.6151C25.6919 36.713 25.7387 36.8042 25.8039 36.8821C25.869 36.9601 25.9509 37.0228 26.0435 37.0659C26.1361 37.109 26.2373 37.1313 26.3397 37.1313H29.9855C30.1467 37.1314 30.3029 37.0761 30.4273 36.9749C30.5516 36.8738 30.6365 36.7332 30.6672 36.5771L32.4361 27.5992H34.7775C35.8612 27.5992 36.0886 27.8275 36.0978 27.8373C36.1635 27.9069 36.2499 28.23 36.1072 28.9538L34.657 36.3158C34.6375 36.415 34.6404 36.5172 34.6657 36.6151C34.6909 36.713 34.7378 36.8042 34.8029 36.8821C34.8681 36.9601 34.9499 37.0228 35.0425 37.0659C35.1352 37.109 35.2363 37.1313 35.3387 37.1313H39.0424C39.2036 37.1314 39.3598 37.0761 39.4841 36.9749C39.6085 36.8738 39.6934 36.7332 39.7241 36.5771L41.2496 28.8343C41.6076 27.0169 41.3013 25.6534 40.3399 24.7817C39.4223 23.9507 37.8852 23.5465 35.6408 23.5465H33.2353L33.9463 19.9386C33.9658 19.8394 33.9629 19.7372 33.9377 19.6393C33.9124 19.5413 33.8656 19.4501 33.8004 19.3722C33.7353 19.2942 33.6534 19.2315 33.5608 19.1884C33.4681 19.1453 33.367 19.1229 33.2646 19.1229M33.2646 19.8079L32.393 24.2315H35.6409C37.6845 24.2315 39.0941 24.5833 39.8701 25.2861C40.646 25.9888 40.8782 27.1286 40.5682 28.7037L39.0428 36.4464H35.3391L36.7893 29.0846C36.9543 28.2471 36.8937 27.6759 36.6071 27.3713C36.3206 27.0667 35.7106 26.9142 34.7779 26.9142H31.8638L29.9858 36.4464H26.3399L29.6186 19.8079H33.2644" fill="white"/>
<path d="M46.6772 33.4785C48.0736 33.4785 49.1161 33.2245 49.7756 32.7239C50.4281 32.2284 50.8788 31.37 51.1152 30.1721C51.3354 29.0527 51.2515 28.271 50.8658 27.8492C50.4714 27.4184 49.6189 27.1999 48.3319 27.1999H46.1004L44.8631 33.4786H46.6771L46.6772 33.4785ZM39.3785 41.2127C39.2749 41.2127 39.1765 41.167 39.1106 41.088C39.078 41.049 39.0546 41.0035 39.042 40.9545C39.0293 40.9056 39.0279 40.8545 39.0376 40.8049L42.3163 24.1664C42.3317 24.0883 42.3741 24.018 42.4363 23.9674C42.4985 23.9169 42.5766 23.8893 42.6572 23.8893H49.7235C51.9446 23.8893 53.5973 24.4829 54.6365 25.6573C55.681 26.8365 56.0033 28.485 55.5951 30.5569C55.4287 31.401 55.1429 32.1848 54.7454 32.8869C54.3472 33.5895 53.8213 34.2397 53.1817 34.8196C52.416 35.5265 51.5493 36.039 50.6081 36.3406C49.6819 36.6382 48.4924 36.7893 47.0725 36.7893H44.2108L43.3941 40.9357C43.3787 41.0138 43.3362 41.0841 43.274 41.1347C43.2118 41.1853 43.1337 41.2129 43.0531 41.2129H39.3783L39.3785 41.2127Z" fill="black"/>
<path d="M46.3868 27.5422H48.3322C49.8854 27.5422 50.4251 27.8784 50.6084 28.0787C50.9128 28.4114 50.9701 29.1128 50.7745 30.1068C50.5549 31.2199 50.1476 32.0092 49.5641 32.4523C48.9667 32.906 47.9954 33.1359 46.6776 33.1359H45.2849L46.3868 27.5422ZM49.7236 23.5466H42.6572C42.4961 23.5467 42.3399 23.602 42.2156 23.7031C42.0912 23.8042 42.0064 23.9448 41.9756 24.1009L38.6971 40.7396C38.6775 40.8388 38.6805 40.941 38.7057 41.0389C38.7309 41.1368 38.7778 41.228 38.8429 41.3059C38.9081 41.3838 38.9899 41.4466 39.0825 41.4897C39.1751 41.5328 39.2763 41.5552 39.3787 41.5552H43.0534C43.2146 41.5552 43.3708 41.4999 43.4951 41.3988C43.6195 41.2976 43.7044 41.157 43.7351 41.0009L44.4975 37.1316H47.0727C48.5289 37.1316 49.7549 36.9749 50.7162 36.6661C51.7046 36.3493 52.6143 35.8122 53.4194 35.0695C54.0852 34.4656 54.6333 33.7875 55.0488 33.0541C55.4643 32.3206 55.7629 31.5022 55.9363 30.6223C56.3663 28.4413 56.017 26.6949 54.8981 25.4318C53.7903 24.181 52.0494 23.5468 49.7238 23.5468M44.4424 33.821H46.6776C48.159 33.821 49.2627 33.5459 49.9877 32.9952C50.7127 32.4445 51.2021 31.5254 51.4562 30.2374C51.6995 29.0009 51.5888 28.1283 51.1241 27.6198C50.6594 27.1113 49.7282 26.8572 48.3324 26.8572H45.8146L44.4425 33.8209M49.724 24.2316C51.8498 24.2316 53.4006 24.7818 54.3753 25.8823C55.3501 26.9828 55.6435 28.5191 55.2546 30.4914C55.0945 31.3039 54.8238 32.0467 54.4427 32.7198C54.0616 33.3929 53.5628 34.009 52.9471 34.5673C52.2133 35.2446 51.3981 35.7272 50.5012 36.0149C49.6042 36.3031 48.4618 36.4466 47.0729 36.4466H43.9253L43.0538 40.8702H39.379L42.6577 24.2317H49.7241" fill="white"/>
</g>
</g>
<defs>
<radialGradient id="paint0_radial_425_68" cx="0" cy="0" r="1" gradientUnits="userSpaceOnUse" gradientTransform="translate(19.822 20.8067) scale(42.0203 41.446)">
<stop stop-color="#AEB2D5"/>
<stop offset="0.3" stop-color="#AEB2D5"/>
<stop offset="0.75" stop-color="#484C89"/>
<stop offset="1" stop-color="#484C89"/>
</radialGradient>
<clipPath id="clip0_425_68">
<rect width="64" height="64" fill="white" transform="translate(0.609131 0.175781)"/>
</clipPath>
</defs>
</svg>
