<svg width="106" height="166" viewBox="0 0 106 166" fill="none" xmlns="http://www.w3.org/2000/svg">
<path d="M73.4445 115.751C77.3656 115.085 80.3262 109.552 80.1813 102.929C80.0363 96.3016 76.6679 90.9626 72.6308 90.9626H72.37C68.1879 91.2005 64.9645 96.9201 65.0804 103.785C65.2253 107.122 66.039 109.984 67.2294 111.985C62.6416 126.809 55.6419 137.681 45.0998 146.738C37.9552 152.937 30.5207 155.176 23.1152 153.603C17.045 152.267 12.3123 147.835 9.34966 140.542C5.02271 129.674 4.61693 117.946 8.27517 106.218C10.8299 97.7799 14.896 91.5846 17.4529 88.4852C16.9001 85.6237 16.1175 80.7163 15.7097 77.1888C-3.83409 100.451 -1.83002 131.866 4.12213 146.741C8.56502 157.8 17.5978 164.665 27.587 164.665C30.2888 164.665 32.9885 164.236 35.6903 163.091C52.9422 157.606 66.039 140.777 73.4445 115.751ZM97.1992 88.2915C86.947 68.6043 71.8462 57.7327 54.5674 57.7327H52.4184C51.199 53.7294 48.6421 51.1058 45.7975 51.1058H45.5367C41.3546 51.3436 38.1311 57.0632 38.2471 63.9281C38.392 70.555 41.7604 75.894 45.7975 75.894H46.0584C49.021 75.6561 51.5758 72.5567 52.6792 68.363H55.1181C65.3702 68.363 75.0697 73.2262 83.8395 82.7588C90.5763 90.0519 95.427 99.5879 98.1267 111.122C100.421 120.417 100.276 129.525 97.8659 137.246C94.0896 148.974 87.7586 155.407 79.3966 155.407C73.9952 155.407 68.8836 152.736 66.1839 150.734C64.7036 152.926 62.0018 156.502 60.1137 158.697C65.9209 163.132 71.8462 165.562 77.5085 165.562C90.4604 165.562 100.044 153.834 103.675 142.109C107.567 129.29 107.306 107.122 97.1992 88.2915ZM28.6636 119.516C28.8085 126.143 32.1769 131.482 36.214 131.482H36.4749C40.6569 131.244 43.8804 125.525 43.7645 118.66C43.6195 112.033 40.2511 106.694 36.214 106.694H35.9532C35.6923 106.694 35.2845 106.694 34.9946 106.932C29.4772 91.8666 27.1833 75.4692 27.9659 57.7837C28.5187 44.4822 31.1894 32.9955 35.9221 23.4595C39.8433 15.259 47.3937 11.3033 52.5053 11.0654C66.7926 10.6372 72.8627 39.8569 73.2706 51.5849C75.0138 52.251 78.0033 53.7769 80.0074 54.9222C78.3822 19.0721 64.9065 0.435059 51.9546 0.435059C39.8164 0.435059 28.6056 14.8308 24.1628 36.0915C17.9477 64.4548 22.0138 91.6763 29.5642 113.127C28.9245 114.653 28.5187 117.086 28.6636 119.516Z" fill="#764ABC"/>
</svg>
